HIERARCHY
ROOT hip
{
	OFFSET 0.000000 0.000000 0.000000
	CHANNELS 6 Xposition Yposition Zposition Xrotation Zrotation Yrotation 
	JOINT abdomen
	{
		OFFSET 0.000000 3.422050 0.000000
		CHANNELS 3 Xrotation Zrotation Yrotation 
		JOINT chest
		{
			OFFSET 0.000000 8.486693 -0.684411
			CHANNELS 3 Xrotation Zrotation Yrotation 
			JOINT neck
			{
				OFFSET 0.000000 10.266162 -0.273764
				CHANNELS 3 Xrotation Zrotation Yrotation 
				JOINT head
				{
					OFFSET 0.000000 3.148285 0.000000
					CHANNELS 3 Xrotation Zrotation Yrotation 
					End Site
					{
						OFFSET 0.000000 3.148289 0.000000
					}
				}
			}
			JOINT lCollar
			{
				OFFSET 3.422053 6.707223 -0.821293
				CHANNELS 3 Yrotation Zrotation Xrotation 
				JOINT lShldr
				{
					OFFSET 3.285171 0.000000 0.000000
					CHANNELS 3 Zrotation Yrotation Xrotation 
					JOINT lForeArm
					{
						OFFSET 10.129278 0.000000 0.000000
						CHANNELS 3 Yrotation Zrotation Xrotation 
						JOINT lHand
						{
							OFFSET 8.486692 0.000000 0.000000
							CHANNELS 3 Zrotation Yrotation Xrotation 
							End Site
							{
								OFFSET 4.106464 0.000000 0.000000
							}
						}
					}
				}
			}
			JOINT rCollar
			{
				OFFSET -3.558935 6.707223 -0.821293
				CHANNELS 3 Yrotation Zrotation Xrotation 
				JOINT rShldr
				{
					OFFSET -3.148289 0.000000 0.000000
					CHANNELS 3 Zrotation Yrotation Xrotation 
					JOINT rForeArm
					{
						OFFSET -10.266159 0.000000 0.000000
						CHANNELS 3 Yrotation Zrotation Xrotation 
						JOINT rHand
						{
							OFFSET -8.349810 0.000000 0.000000
							CHANNELS 3 Zrotation Yrotation Xrotation 
							End Site
							{
								OFFSET -4.106464 0.000000 0.000000
							}
						}
					}
				}
			}
		}
	}
	JOINT lThigh
	{
		OFFSET 5.338403 -1.642589 1.368821
		CHANNELS 3 Xrotation Zrotation Yrotation 
		JOINT lShin
		{
			OFFSET -2.053232 -20.121670 0.000000
			CHANNELS 3 Xrotation Zrotation Yrotation 
			JOINT lFoot
			{
				OFFSET 0.000000 -19.300380 -1.231939
				CHANNELS 3 Xrotation Yrotation Zrotation 
				End Site
				{
					OFFSET 0.000000 -2.463878 4.653993
				}
			}
		}
	}
	JOINT rThigh
	{
		OFFSET -5.338403 -1.642589 1.368821
		CHANNELS 3 Xrotation Zrotation Yrotation 
		JOINT rShin
		{
			OFFSET 2.053232 -20.121670 0.000000
			CHANNELS 3 Xrotation Zrotation Yrotation 
			JOINT rFoot
			{
				OFFSET 0.000000 -19.300380 -1.231939
				CHANNELS 3 Xrotation Yrotation Zrotation 
				End Site
				{
					OFFSET 0.000000 -2.463878 4.653993
				}
			}
		}
	}
}
MOTION
Frames: 17
Frame Time: 0.049989
0.000000 43.528500 0.000000 0.000000 0.000000 0.000000 0.000000 0.000000 0.000000 0.000000 0.000000 0.000000 0.000000 0.000000 0.000000 0.000000 0.000000 0.000000 0.000000 0.000000 0.000000 0.000000 0.000000 0.000000 0.000000 0.000000 0.000000 0.000000 0.000000 0.000000 0.000000 0.000000 0.000000 0.000000 0.000000 0.000000 0.000000 0.000000 0.000000 0.000000 0.000000 0.000000 0.000000 0.000000 0.000000 0.000000 0.000000 0.000000 0.000000 0.000000 0.000000 0.000000 0.000000 0.000000 0.000000 0.000000 0.000000 0.000000 0.000000 0.000000 
-16.529585 43.519489 0.000000 -0.002479 1.998155 89.999458 11.621599 -0.061000 -0.039601 -8.608654 -0.137164 -0.587621 -0.662703 0.000000 0.000000 -0.257046 0.000000 0.000000 13.809147 -4.433702 1.318016 -8.262832 7.735103 -51.965843 -49.913761 -28.489307 -15.399130 -10.319458 -4.207218 -1.916273 -7.692362 4.896988 0.773203 53.883286 -7.758317 24.006573 48.923084 28.054810 -14.949429 6.996825 0.000000 0.000000 1.174011 8.209826 4.354155 10.464570 -3.443667 -0.039659 -4.184138 -2.722059 3.725469 1.719957 -6.385391 -8.621210 10.666236 5.896856 -0.062748 -3.570996 6.865066 -8.551765 
-16.552280 43.519489 0.000000 -0.002481 1.720423 89.999290 10.900609 -0.061038 -0.039598 -7.777305 -0.137157 -0.587605 -1.315078 0.000000 0.000000 -0.254867 0.000000 0.000000 13.809146 -4.433702 1.318016 -8.262832 7.735103 -51.965843 -49.913761 -28.489307 -15.399130 -10.074488 -4.350904 -2.206591 -7.692362 4.896988 0.773203 53.883282 -7.758315 24.006571 48.923084 28.054810 -14.949429 6.996825 0.000000 0.000000 0.831993 8.209269 4.338778 10.464570 -3.443667 -0.039659 -4.184138 -2.722059 3.725469 1.379434 -6.385539 -8.619884 10.666235 5.896856 -0.062748 -3.570996 6.865066 -8.551765 
-16.574974 43.519489 0.000000 -0.002481 1.442665 89.999168 10.179160 -0.061076 -0.039595 -6.945253 -0.137151 -0.587589 -1.968400 0.000000 0.000000 -0.252689 0.000000 0.000000 13.809146 -4.433702 1.318016 -8.262831 7.735103 -51.965843 -49.913761 -28.489302 -15.399128 -9.828697 -4.493375 -2.497634 -7.692360 4.896987 0.773202 53.883286 -7.758317 24.006571 48.923084 28.054810 -14.949429 6.996825 0.000000 0.000000 0.489927 8.208617 4.323402 10.464570 -3.443666 -0.039659 -4.184138 -2.722059 3.725469 1.038861 -6.385678 -8.618553 10.666236 5.896856 -0.062748 -3.570995 6.865066 -8.551764 
-16.597668 43.519489 0.000000 -0.002481 1.164884 89.999001 9.457313 -0.061114 -0.039591 -6.112586 -0.137145 -0.587573 -2.622630 0.000000 0.000000 -0.250511 0.000000 0.000000 13.809147 -4.433703 1.318016 -8.262832 7.735104 -51.965847 -49.913761 -28.489307 -15.399130 -9.582095 -4.634623 -2.789393 -7.692362 4.896989 0.773203 53.883286 -7.758316 24.006573 48.923088 28.054815 -14.949430 6.996825 0.000000 0.000000 0.147820 8.207875 4.308029 10.464571 -3.443667 -0.039659 -4.184138 -2.722059 3.725469 0.698247 -6.385811 -8.617224 10.666237 5.896856 -0.062748 -3.570996 6.865067 -8.551765 
-16.620363 43.519489 0.000000 -0.002480 0.887083 89.998840 8.735118 -0.061152 -0.039587 -5.279387 -0.137139 -0.587557 -3.277725 0.000000 0.000000 -0.248332 0.000000 0.000000 13.809147 -4.433702 1.318016 -8.262832 7.735103 -51.965843 -49.913761 -28.489307 -15.399130 -9.334687 -4.774633 -3.081860 -7.692362 4.896988 0.773203 53.883289 -7.758317 24.006575 48.923084 28.054810 -14.949429 6.996825 0.000000 0.000000 -0.194322 8.207044 4.292660 10.464570 -3.443667 -0.039659 -4.184138 -2.722059 3.725469 0.357597 -6.385934 -8.615891 10.666236 5.896856 -0.062748 -3.570996 6.865066 -8.551765 
-16.643059 43.519489 0.000000 -0.002479 0.609267 89.998695 8.012636 -0.061191 -0.039582 -4.445749 -0.137134 -0.587541 -3.933644 0.000000 0.000000 -0.246154 0.000000 0.000000 13.809147 -4.433702 1.318016 -8.262832 7.735103 -51.965843 -49.913761 -28.489307 -15.399130 -9.086489 -4.913400 -3.375026 -7.692362 4.896988 0.773203 53.883286 -7.758317 24.006573 48.923084 28.054810 -14.949429 6.996825 0.000000 0.000000 -0.536494 8.206121 4.277294 10.464570 -3.443667 -0.039659 -4.184138 -2.722059 3.725469 0.016916 -6.386050 -8.614560 10.666236 5.896856 -0.062748 -3.570996 6.865066 -8.551765 
-16.665752 43.519489 0.000000 -0.002477 0.331437 89.998550 7.289926 -0.061229 -0.039577 -3.611757 -0.137129 -0.587525 -4.590349 0.000000 0.000000 -0.243976 0.000000 0.000000 13.809147 -4.433702 1.318016 -8.262832 7.735103 -51.965843 -49.913761 -28.489307 -15.399130 -8.837503 -5.050910 -3.668882 -7.692361 4.896988 0.773203 53.883286 -7.758316 24.006571 48.923084 28.054810 -14.949429 6.996825 0.000000 0.000000 -0.878689 8.205107 4.261932 10.464570 -3.443666 -0.039659 -4.184138 -2.722059 3.725469 -0.323789 -6.386159 -8.613227 10.666236 5.896856 -0.062748 -3.570996 6.865066 -8.551765 
-16.688446 43.519489 0.000000 -0.002474 0.053597 89.998398 6.567042 -0.061267 -0.039571 -2.777499 -0.137123 -0.587508 -5.247795 0.000000 0.000000 -0.241797 0.000000 0.000000 13.809145 -4.433702 1.318016 -8.262832 7.735103 -51.965843 -49.913761 -28.489307 -15.399130 -8.587741 -5.187154 -3.963418 -7.692362 4.896988 0.773203 53.883282 -7.758316 24.006571 48.923077 28.054810 -14.949427 6.996825 0.000000 0.000000 -1.220900 8.204002 4.246577 10.464570 -3.443667 -0.039659 -4.184138 -2.722059 3.725468 -0.664512 -6.386260 -8.611894 10.666236 5.896856 -0.062748 -3.570996 6.865065 -8.551764 
-16.711142 43.519489 0.000000 -0.002470 -0.224249 89.998238 5.844042 -0.061305 -0.039565 -1.943066 -0.137119 -0.587492 -5.905940 0.000000 0.000000 -0.239619 0.000000 0.000000 13.809148 -4.433703 1.318016 -8.262832 7.735103 -51.965843 -49.913769 -28.489311 -15.399133 -8.337211 -5.322122 -4.258626 -7.692362 4.896988 0.773203 53.883289 -7.758317 24.006573 48.923084 28.054811 -14.949429 6.996825 0.000000 0.000000 -1.563122 8.202807 4.231228 10.464570 -3.443667 -0.039659 -4.184138 -2.722059 3.725469 -1.005247 -6.386354 -8.610561 10.666236 5.896856 -0.062748 -3.570996 6.865067 -8.551765 
-16.733837 43.519489 0.000000 -0.002466 -0.502099 89.998100 5.120986 -0.061342 -0.039558 -1.108542 -0.137114 -0.587475 -6.564742 0.000000 0.000000 -0.237441 0.000000 0.000000 13.809148 -4.433702 1.318016 -8.262832 7.735103 -51.965843 -49.913761 -28.489307 -15.399130 -8.085926 -5.455805 -4.554496 -7.692362 4.896988 0.773203 53.883286 -7.758317 24.006573 48.923084 28.054811 -14.949429 6.996825 0.000000 0.000000 -1.905349 8.201521 4.215886 10.464570 -3.443667 -0.039659 -4.184138 -2.722059 3.725469 -1.345988 -6.386438 -8.609227 10.666237 5.896856 -0.062748 -3.570996 6.865066 -8.551765 
-16.756531 43.519489 0.000000 -0.002461 -0.779948 89.997948 4.397929 -0.061380 -0.039551 -0.274019 -0.137110 -0.587459 -7.224158 0.000000 0.000000 -0.235262 0.000000 0.000000 13.809147 -4.433702 1.318016 -8.262832 7.735103 -51.965843 -49.913761 -28.489307 -15.399130 -7.833894 -5.588192 -4.851018 -7.692362 4.896988 0.773203 53.883286 -7.758317 24.006573 48.923084 28.054810 -14.949429 6.996825 0.000000 0.000000 -2.247575 8.200144 4.200552 10.464570 -3.443667 -0.039659 -4.184138 -2.722059 3.725469 -1.686730 -6.386516 -8.607893 10.666236 5.896856 -0.062748 -3.570996 6.865066 -8.551765 
-16.779224 43.519489 0.000000 -0.002455 -1.057794 89.997795 3.674931 -0.061418 -0.039543 0.560416 -0.137106 -0.587442 -7.884148 0.000000 0.000000 -0.233084 0.000000 0.000000 13.809146 -4.433702 1.318016 -8.262832 7.735103 -51.965843 -49.913761 -28.489307 -15.399130 -7.581127 -5.719275 -5.148185 -7.692361 4.896987 0.773203 53.883286 -7.758317 24.006573 48.923080 28.054808 -14.949429 6.996825 0.000000 0.000000 -2.589792 8.198675 4.185226 10.464570 -3.443666 -0.039659 -4.184138 -2.722059 3.725469 -2.027465 -6.386583 -8.606556 10.666236 5.896856 -0.062748 -3.570996 6.865066 -8.551765 
-16.801920 43.519489 0.000000 -0.002448 -1.335634 89.997643 2.952047 -0.061456 -0.039535 1.394674 -0.137102 -0.587426 -8.544665 0.000000 0.000000 -0.230906 0.000000 0.000000 13.809147 -4.433702 1.318016 -8.262832 7.735103 -51.965843 -49.913761 -28.489307 -15.399130 -7.327633 -5.849045 -5.445984 -7.692362 4.896988 0.773203 53.883286 -7.758317 24.006573 48.923077 28.054808 -14.949427 6.996825 0.000000 0.000000 -2.931996 8.197119 4.169912 10.464570 -3.443666 -0.039659 -4.184137 -2.722059 3.725469 -2.368188 -6.386645 -8.605221 10.666235 5.896855 -0.062748 -3.570996 6.865065 -8.551764 
-16.824615 43.519489 0.000000 -0.002441 -1.613464 89.997490 2.229336 -0.061493 -0.039527 2.228666 -0.137098 -0.587409 -9.205668 0.000000 0.000000 -0.228727 0.000000 0.000000 13.809147 -4.433702 1.318016 -8.262832 7.735103 -51.965843 -49.913765 -28.489309 -15.399130 -7.073423 -5.977491 -5.744405 -7.692362 4.896988 0.773203 53.883286 -7.758317 24.006573 48.923084 28.054810 -14.949429 6.996825 0.000000 0.000000 -3.274181 8.195470 4.154608 10.464570 -3.443667 -0.039659 -4.184138 -2.722059 3.725469 -2.708893 -6.386700 -8.603887 10.666237 5.896856 -0.062748 -3.570996 6.865067 -8.551765 
-16.847309 43.519489 0.000000 -0.002433 -1.891281 89.997337 1.506854 -0.061530 -0.039517 3.062304 -0.137095 -0.587392 -9.867111 0.000000 0.000000 -0.226549 0.000000 0.000000 13.809147 -4.433702 1.318016 -8.262832 7.735104 -51.965847 -49.913765 -28.489309 -15.399130 -6.818507 -6.104605 -6.043440 -7.692362 4.896988 0.773203 53.883286 -7.758317 24.006573 48.923084 28.054810 -14.949429 6.996825 0.000000 0.000000 -3.616339 8.193731 4.139316 10.464570 -3.443667 -0.039659 -4.184138 -2.722059 3.725469 -3.049575 -6.386745 -8.602551 10.666236 5.896856 -0.062748 -3.570996 6.865066 -8.551765 
-16.870003 43.519489 0.000000 -0.002424 -2.169081 89.997200 0.784660 -0.061568 -0.039508 3.895502 -0.137092 -0.587375 -10.528956 0.000000 0.000000 -0.224370 0.000000 0.000000 13.809147 -4.433702 1.318016 -8.262832 7.735103 -51.965843 -49.913761 -28.489307 -15.399130 -6.562898 -6.230380 -6.343077 -7.692362 4.896988 0.773203 53.883286 -7.758317 24.006573 48.923084 28.054810 -14.949429 6.996825 0.000000 0.000000 -3.958464 8.191902 4.124034 10.464570 -3.443667 -0.039659 -4.184138 -2.722059 3.725469 -3.390225 -6.386781 -8.601213 10.666236 5.896856 -0.062748 -3.570996 6.865066 -8.551765 
